#Comment line ignore any data following # character 
#Hierarchical Translation and Rotation (.htr) file 
[Header]	
#Header keywords are followed by a single value 
FileType HTR		#Single word string
DataType HTRS		#Translation followed by rotation and scale data
FileVersion 1		#integer
NumSegments 84		#integer
NumFrames 2		#integer
DataFrameRate 30		#integer, data frame rate in this file
EulerRotationOrder ZYX
CalibrationUnits mm
RotationUnits Degrees
GlobalAxisofGravity Y
BoneLengthAxis Y
ScaleFactor 1.00
[SegmentNames&Hierarchy]
#CHILD	PARENT
MASTER GLOBAL
root MASTER
chest root
L_mid_tent01 root
R_mid_tent01 root
spine01 root
Bip01_Neck chest
L_humerus chest
R_humerus chest
weapon_bone chest
Bip01_Head Bip01_Neck
eye_left_bone Bip01_Head
eye_right_bone Bip01_Head
L_forearm L_humerus
L_front_hand L_forearm
L_weapon_bone L_forearm
L_front_hand01_01 L_front_hand
L_front_hand02_01 L_front_hand
L_front_hand03_01 L_front_hand
L_front_hand01_02 L_front_hand01_01
L_front_hand02_02 L_front_hand02_01
L_front_hand03_02 L_front_hand03_01
R_forearm R_humerus
R_front_hand R_forearm
R_weapon_bone R_forearm
R_front_hand01_01 R_front_hand
R_front_hand02_01 R_front_hand
R_front_hand03_01 R_front_hand
R_front_hand01_02 R_front_hand01_01
R_front_hand02_02 R_front_hand02_01
R_front_hand03_02 R_front_hand03_01
null_rope01_connect L_mid_tent01
Rope1_Seg01 null_rope01_connect
Rope1_Seg02 Rope1_Seg01
Rope1_Seg03 Rope1_Seg02
Rope1_Seg04 Rope1_Seg03
Rope1_Seg05 Rope1_Seg04
Rope1_Seg06 Rope1_Seg05
Rope1_Seg07 Rope1_Seg06
Rope1_Seg09 Rope1_Seg07
L_mid_hand01 Rope1_Seg09
L_mid_hand02 Rope1_Seg09
L_mid_hand03 Rope1_Seg09
null_rope02_connect R_mid_tent01
Rope2_Seg01 null_rope02_connect
Rope2_Seg02 Rope2_Seg01
Rope2_Seg03 Rope2_Seg02
Rope2_Seg04 Rope2_Seg03
Rope2_Seg05 Rope2_Seg04
Rope2_Seg06 Rope2_Seg05
Rope2_Seg07 Rope2_Seg06
Rope2_Seg09 Rope2_Seg07
R_mid_hand01 Rope2_Seg09
R_mid_hand02 Rope2_Seg09
R_mid_hand03 Rope2_Seg09
spine02 spine01
spine03 spine02
pelvis spine03
null_rope03_connect pelvis
null_rope04_connect pelvis
Rope3_Seg01 null_rope03_connect
Rope3_Seg02 Rope3_Seg01
Rope3_Seg03 Rope3_Seg02
Rope3_Seg04 Rope3_Seg03
Rope3_Seg05 Rope3_Seg04
Rope3_Seg06 Rope3_Seg05
Rope3_Seg07 Rope3_Seg06
Rope3_Seg08 Rope3_Seg07
Rope3_Seg09 Rope3_Seg08
R_rear_hand01 Rope3_Seg09
R_rear_hand02 Rope3_Seg09
R_rear_hand03 Rope3_Seg09
Rope4_Seg01 null_rope04_connect
Rope4_Seg02 Rope4_Seg01
Rope4_Seg03 Rope4_Seg02
Rope4_Seg04 Rope4_Seg03
Rope4_Seg05 Rope4_Seg04
Rope4_Seg06 Rope4_Seg05
Rope4_Seg07 Rope4_Seg06
Rope4_Seg08 Rope4_Seg07
Rope4_Seg09 Rope4_Seg08
L_rear_hand01 Rope4_Seg09
L_rear_hand02 Rope4_Seg09
L_rear_hand03 Rope4_Seg09
[BasePosition]
#SegmentName Tx, Ty, Tz, Rx, Ry, Rz, BoneLength
MASTER 0.000000 0.000000 0.000000 -90.000000 0.000000 0.000000 10.000000 
root 0.000000 0.000000 0.000000 0.000000 0.000000 0.000000 10.000000 
chest 0.000000 0.000000 0.000000 0.000000 0.000000 0.000000 10.000000 
L_mid_tent01 0.000000 0.000000 0.000000 0.000000 0.000000 0.000000 10.000000 
R_mid_tent01 0.000000 0.000000 0.000000 0.000000 0.000000 0.000000 10.000000 
spine01 0.000000 0.000000 0.000000 0.000000 0.000000 0.000000 10.000000 
Bip01_Neck 0.000000 0.000000 0.000000 0.000000 0.000000 0.000000 10.000000 
L_humerus 0.000000 0.000000 0.000000 0.000000 0.000000 0.000000 10.000000 
R_humerus 0.000000 0.000000 0.000000 0.000000 0.000000 0.000000 10.000000 
weapon_bone 0.000000 0.000000 0.000000 0.000000 0.000000 0.000000 10.000000 
Bip01_Head 0.000000 0.000000 0.000000 0.000000 0.000000 0.000000 10.000000 
eye_left_bone 0.000000 0.000000 0.000000 0.000000 0.000000 0.000000 10.000000 
eye_right_bone 0.000000 0.000000 0.000000 0.000000 0.000000 0.000000 10.000000 
L_forearm 0.000000 0.000000 0.000000 0.000000 0.000000 0.000000 10.000000 
L_front_hand 0.000000 0.000000 0.000000 0.000000 0.000000 0.000000 10.000000 
L_weapon_bone 0.000000 0.000000 0.000000 0.000000 0.000000 0.000000 10.000000 
L_front_hand01_01 0.000000 0.000000 0.000000 0.000000 0.000000 0.000000 10.000000 
L_front_hand02_01 0.000000 0.000000 0.000000 0.000000 0.000000 0.000000 10.000000 
L_front_hand03_01 0.000000 0.000000 0.000000 0.000000 0.000000 0.000000 10.000000 
L_front_hand01_02 0.000000 0.000000 0.000000 0.000000 0.000000 0.000000 10.000000 
L_front_hand02_02 0.000000 0.000000 0.000000 0.000000 0.000000 0.000000 10.000000 
L_front_hand03_02 0.000000 0.000000 0.000000 0.000000 0.000000 0.000000 10.000000 
R_forearm 0.000000 0.000000 0.000000 0.000000 0.000000 0.000000 10.000000 
R_front_hand 0.000000 0.000000 0.000000 0.000000 0.000000 0.000000 10.000000 
R_weapon_bone 0.000000 0.000000 0.000000 0.000000 0.000000 0.000000 10.000000 
R_front_hand01_01 0.000000 0.000000 0.000000 0.000000 0.000000 0.000000 10.000000 
R_front_hand02_01 0.000000 0.000000 0.000000 0.000000 0.000000 0.000000 10.000000 
R_front_hand03_01 0.000000 0.000000 0.000000 0.000000 0.000000 0.000000 10.000000 
R_front_hand01_02 0.000000 0.000000 0.000000 0.000000 0.000000 0.000000 10.000000 
R_front_hand02_02 0.000000 0.000000 0.000000 0.000000 0.000000 0.000000 10.000000 
R_front_hand03_02 0.000000 0.000000 0.000000 0.000000 0.000000 0.000000 10.000000 
null_rope01_connect 0.000000 0.000000 0.000000 0.000000 0.000000 0.000000 10.000000 
Rope1_Seg01 0.000000 0.000000 0.000000 0.000000 0.000000 0.000000 10.000000 
Rope1_Seg02 0.000000 0.000000 0.000000 0.000000 0.000000 0.000000 10.000000 
Rope1_Seg03 0.000000 0.000000 0.000000 0.000000 0.000000 0.000000 10.000000 
Rope1_Seg04 0.000000 0.000000 0.000000 0.000000 0.000000 0.000000 10.000000 
Rope1_Seg05 0.000000 0.000000 0.000000 0.000000 0.000000 0.000000 10.000000 
Rope1_Seg06 0.000000 0.000000 0.000000 0.000000 0.000000 0.000000 10.000000 
Rope1_Seg07 0.000000 0.000000 0.000000 0.000000 0.000000 0.000000 10.000000 
Rope1_Seg09 0.000000 0.000000 0.000000 0.000000 0.000000 0.000000 10.000000 
L_mid_hand01 0.000000 0.000000 0.000000 0.000000 0.000000 0.000000 10.000000 
L_mid_hand02 0.000000 0.000000 0.000000 0.000000 0.000000 0.000000 10.000000 
L_mid_hand03 0.000000 0.000000 0.000000 0.000000 0.000000 0.000000 10.000000 
null_rope02_connect 0.000000 0.000000 0.000000 0.000000 0.000000 0.000000 10.000000 
Rope2_Seg01 0.000000 0.000000 0.000000 0.000000 0.000000 0.000000 10.000000 
Rope2_Seg02 0.000000 0.000000 0.000000 0.000000 0.000000 0.000000 10.000000 
Rope2_Seg03 0.000000 0.000000 0.000000 0.000000 0.000000 0.000000 10.000000 
Rope2_Seg04 0.000000 0.000000 0.000000 0.000000 0.000000 0.000000 10.000000 
Rope2_Seg05 0.000000 0.000000 0.000000 0.000000 0.000000 0.000000 10.000000 
Rope2_Seg06 0.000000 0.000000 0.000000 0.000000 0.000000 0.000000 10.000000 
Rope2_Seg07 0.000000 0.000000 0.000000 0.000000 0.000000 0.000000 10.000000 
Rope2_Seg09 0.000000 0.000000 0.000000 0.000000 0.000000 0.000000 10.000000 
R_mid_hand01 0.000000 0.000000 0.000000 0.000000 0.000000 0.000000 10.000000 
R_mid_hand02 0.000000 0.000000 0.000000 0.000000 0.000000 0.000000 10.000000 
R_mid_hand03 0.000000 0.000000 0.000000 0.000000 0.000000 0.000000 10.000000 
spine02 0.000000 0.000000 0.000000 0.000000 0.000000 0.000000 10.000000 
spine03 0.000000 0.000000 0.000000 0.000000 0.000000 0.000000 10.000000 
pelvis 0.000000 0.000000 0.000000 0.000000 0.000000 0.000000 10.000000 
null_rope03_connect 0.000000 0.000000 0.000000 0.000000 0.000000 0.000000 10.000000 
null_rope04_connect 0.000000 0.000000 0.000000 0.000000 0.000000 0.000000 10.000000 
Rope3_Seg01 0.000000 0.000000 0.000000 0.000000 0.000000 0.000000 10.000000 
Rope3_Seg02 0.000000 0.000000 0.000000 0.000000 0.000000 0.000000 10.000000 
Rope3_Seg03 0.000000 0.000000 0.000000 0.000000 0.000000 0.000000 10.000000 
Rope3_Seg04 0.000000 0.000000 0.000000 0.000000 0.000000 0.000000 10.000000 
Rope3_Seg05 0.000000 0.000000 0.000000 0.000000 0.000000 0.000000 10.000000 
Rope3_Seg06 0.000000 0.000000 0.000000 0.000000 0.000000 0.000000 10.000000 
Rope3_Seg07 0.000000 0.000000 0.000000 0.000000 0.000000 0.000000 10.000000 
Rope3_Seg08 0.000000 0.000000 0.000000 0.000000 0.000000 0.000000 10.000000 
Rope3_Seg09 0.000000 0.000000 0.000000 0.000000 0.000000 0.000000 10.000000 
R_rear_hand01 0.000000 0.000000 0.000000 0.000000 0.000000 0.000000 10.000000 
R_rear_hand02 0.000000 0.000000 0.000000 0.000000 0.000000 0.000000 10.000000 
R_rear_hand03 0.000000 0.000000 0.000000 0.000000 0.000000 0.000000 10.000000 
Rope4_Seg01 0.000000 0.000000 0.000000 0.000000 0.000000 0.000000 10.000000 
Rope4_Seg02 0.000000 0.000000 0.000000 0.000000 0.000000 0.000000 10.000000 
Rope4_Seg03 0.000000 0.000000 0.000000 0.000000 0.000000 0.000000 10.000000 
Rope4_Seg04 0.000000 0.000000 0.000000 0.000000 0.000000 0.000000 10.000000 
Rope4_Seg05 0.000000 0.000000 0.000000 0.000000 0.000000 0.000000 10.000000 
Rope4_Seg06 0.000000 0.000000 0.000000 0.000000 0.000000 0.000000 10.000000 
Rope4_Seg07 0.000000 0.000000 0.000000 0.000000 0.000000 0.000000 10.000000 
Rope4_Seg08 0.000000 0.000000 0.000000 0.000000 0.000000 0.000000 10.000000 
Rope4_Seg09 0.000000 0.000000 0.000000 0.000000 0.000000 0.000000 10.000000 
L_rear_hand01 0.000000 0.000000 0.000000 0.000000 0.000000 0.000000 10.000000 
L_rear_hand02 0.000000 0.000000 0.000000 0.000000 0.000000 0.000000 10.000000 
L_rear_hand03 0.000000 0.000000 0.000000 0.000000 0.000000 0.000000 10.000000 
#Beginning of Data. Separated by tabs
#Fr	Tx	Ty	Tz	Rx	Ry	Rz	SF
[MASTER]
47 0.000000 0.000000 0.000000 0.001660 0.001660 0.001660 0.000000
48 0.000000 0.000000 0.000000 0.001660 0.001660 0.001660 0.000000
[root]
47 -13.421187 -53.514111 1593.314209 -108.001343 17.349781 -88.480690 1594.269165
48 -14.545467 -53.826126 1596.773804 -108.062218 17.905325 -88.671326 1597.746948
[chest]
47 -86.836594 -33.005978 -30.127230 -1.797728 -9.217025 -178.546631 97.660828
48 -86.836594 -33.005978 -30.127230 -2.145465 -9.217001 -178.910614 97.660828
[L_mid_tent01]
47 27.299479 22.177580 -249.918289 -4.808822 8.139744 74.084702 252.381180
48 27.299477 22.177580 -249.918289 -4.817647 6.746097 73.453438 252.381180
[R_mid_tent01]
47 23.228794 24.509907 226.238495 -176.073868 -14.682566 65.719658 228.744751
48 23.228794 24.509907 226.238495 -176.081116 -14.319592 65.745018 228.744751
[spine01]
47 -0.361383 -0.195265 0.000000 -0.000001 -0.000007 22.052340 0.410763
48 -0.361383 -0.195265 0.000000 -0.000001 -0.000007 22.052340 0.410763
[Bip01_Neck]
47 165.484543 71.581718 0.000119 175.896118 1.177290 24.871183 180.302734
48 165.484543 71.581718 0.000119 175.896118 1.177290 24.871183 180.302734
[L_humerus]
47 -13.983130 -135.272980 -120.471481 -168.517593 36.033752 -113.483025 181.680161
48 -13.983130 -135.272980 -120.471481 -168.517593 36.033752 -113.483025 181.680161
[R_humerus]
47 -13.983309 -135.273102 125.287651 -179.588654 -28.895136 -122.030510 184.909012
48 -13.983309 -135.273102 125.287651 -179.588654 -28.895136 -122.030510 184.909012
[weapon_bone]
47 235.964890 -300.705902 0.000000 0.000000 -89.951546 -128.212341 382.234833
48 235.964890 -300.705902 0.000000 0.000000 -89.951546 -128.212341 382.234833
[Bip01_Head]
47 189.519958 179.130234 22.124920 -23.626308 5.787232 14.654977 261.715424
48 189.519958 179.130234 22.124922 -23.626308 5.787232 14.654979 261.715424
[eye_left_bone]
47 -24.626970 125.451866 -64.772606 0.000000 -90.000000 -99.840431 143.318359
48 -24.626970 125.451866 -64.772606 0.000000 -90.000000 -99.840431 143.318359
[eye_right_bone]
47 -24.626970 125.451866 64.327362 0.000000 -89.965736 80.156380 143.117676
48 -24.626970 125.451866 64.327362 0.000000 -89.965736 80.156380 143.117676
[L_forearm]
47 322.776093 0.000000 -0.000119 0.000017 0.002347 -89.149834 322.776093
48 322.776093 0.000000 -0.000119 0.000017 0.002347 -89.149834 322.776093
[L_front_hand]
47 241.149185 -0.042021 -3.300071 53.752888 -2.244279 -0.021032 241.171753
48 241.149185 -0.042021 -3.300071 56.329845 -2.242442 -0.020579 241.171753
[L_weapon_bone]
47 156.183838 0.000000 0.000000 0.000014 0.000007 0.000001 156.183838
48 156.183838 0.000000 0.000000 0.000014 0.000007 0.000001 156.183838
[L_front_hand01_01]
47 86.095154 20.947098 -0.655860 -0.366594 -0.477154 75.385574 88.609184
48 86.095154 20.947098 -0.655860 -0.366594 -0.477154 75.385574 88.609184
[L_front_hand02_01]
47 86.935165 -11.437475 24.513514 154.399796 -59.883835 -61.369587 91.046425
48 86.935165 -11.437475 24.513514 154.399796 -59.883835 -61.369587 91.046425
[L_front_hand03_01]
47 86.637497 -14.123976 -20.424902 -153.913849 58.118122 -62.702866 90.126129
48 86.637497 -14.123976 -20.424902 -153.913849 58.118122 -62.702866 90.126129
[L_front_hand01_02]
47 71.020905 -0.000179 0.000030 0.000334 -0.002323 -106.379684 71.020905
48 71.020905 -0.000179 0.000030 0.000334 -0.002323 -106.379684 71.020905
[L_front_hand02_02]
47 71.020927 -0.000119 0.000060 0.000334 -0.002323 -106.379684 71.020927
48 71.020927 -0.000119 0.000060 0.000334 -0.002323 -106.379684 71.020927
[L_front_hand03_02]
47 71.020905 -0.000060 0.000060 0.000334 -0.002323 -106.379684 71.020905
48 71.020905 -0.000060 0.000060 0.000334 -0.002323 -106.379684 71.020905
[R_forearm]
47 322.776428 -0.000060 0.000030 0.213197 0.007525 -93.425270 322.776428
48 322.776428 -0.000060 0.000030 0.213197 0.007525 -93.425262 322.776428
[R_front_hand]
47 238.847015 -0.006795 2.210259 -0.270529 1.703932 2.322530 238.857239
48 238.847015 -0.006795 2.210259 -0.270529 1.703932 2.322530 238.857239
[R_weapon_bone]
47 155.664093 0.002503 -0.000030 0.003487 0.001180 -90.988930 155.664078
48 155.664093 0.002503 -0.000030 0.003487 0.001180 -90.988930 155.664078
[R_front_hand01_01]
47 87.624611 14.231146 22.918642 -154.633499 -59.950619 61.746044 91.683487
48 87.624611 14.231146 22.918642 -154.633499 -59.950619 61.746044 91.683487
[R_front_hand02_01]
47 89.356956 14.367283 -19.491137 154.602661 58.302849 63.744389 92.579636
48 89.356956 14.367283 -19.491137 154.602661 58.302849 63.744389 92.579636
[R_front_hand03_01]
47 87.286232 -22.307278 -0.143439 0.162155 -0.423168 -75.767921 90.091743
48 87.286232 -22.307278 -0.143439 0.162155 -0.423168 -75.767921 90.091743
[R_front_hand01_02]
47 71.020905 0.000060 0.000119 0.002323 -0.000334 106.381714 71.020905
48 71.020905 0.000060 0.000119 0.002323 -0.000334 106.381714 71.020905
[R_front_hand02_02]
47 71.020844 -0.000030 -0.000119 0.002323 -0.000334 106.381714 71.020836
48 71.020844 -0.000030 -0.000119 0.002323 -0.000334 106.381714 71.020836
[R_front_hand03_02]
47 71.020905 0.000000 0.000030 0.002323 -0.000334 106.381714 71.020905
48 71.020905 0.000000 0.000030 0.002323 -0.000334 106.381714 71.020905
[null_rope01_connect]
47 328.732483 0.000000 -0.000238 154.729309 -62.138706 -156.547760 328.732483
48 328.732483 0.000000 -0.000238 153.495178 -63.407837 -155.290802 328.732483
[Rope1_Seg01]
47 0.000000 0.000000 0.000000 176.625671 49.529598 -148.328171 0.000000
48 0.000000 0.000000 0.000000 172.108170 49.000092 -151.249115 0.000000
[Rope1_Seg02]
47 139.999863 -0.000179 0.000000 11.346934 -4.452663 -5.714935 139.999863
48 139.999863 -0.000179 0.000000 11.148514 -3.913954 -6.339670 139.999863
[Rope1_Seg03]
47 139.999924 0.000060 -0.000060 15.173369 -8.264282 -5.934420 139.999924
48 139.999924 0.000060 -0.000060 15.896073 -7.659545 -6.987354 139.999924
[Rope1_Seg04]
47 139.999924 -0.000060 -0.000119 16.164022 -17.683111 -2.842378 139.999924
48 139.999924 -0.000060 -0.000119 18.367205 -17.154671 -4.772591 139.999924
[Rope1_Seg05]
47 139.999832 0.000119 -0.000060 6.633626 4.959888 -13.594046 139.999832
48 139.999832 0.000119 -0.000060 6.960509 4.498271 -12.873993 139.999832
[Rope1_Seg06]
47 139.999954 0.000119 -0.000060 5.755996 7.531301 -12.329673 139.999954
48 139.999954 0.000119 -0.000060 4.789233 7.234852 -11.306463 139.999954
[Rope1_Seg07]
47 139.999985 0.000060 0.000000 8.622553 1.276050 -5.047411 139.999985
48 139.999985 0.000060 0.000000 7.822031 1.260027 -4.687674 139.999985
[Rope1_Seg09]
47 121.602913 0.000119 -0.000089 -89.793175 -1.359789 0.847147 121.602913
48 121.602913 0.000119 -0.000089 -89.793175 -1.359789 0.847147 121.602913
[L_mid_hand01]
47 103.859421 1.038730 8.195221 106.855484 -31.239275 -9.461397 104.187431
48 103.859421 1.038730 8.195221 106.855484 -31.239275 -9.461397 104.187431
[L_mid_hand02]
47 105.572853 -4.139662 -10.864139 -142.331345 25.752670 -28.774628 106.211075
48 105.572853 -4.139662 -10.864139 -142.331345 25.752670 -28.774628 106.211075
[L_mid_hand03]
47 104.641464 17.579376 -3.913581 -16.122810 9.734291 34.223598 106.179977
48 104.641464 17.579376 -3.913581 -16.122810 9.734291 34.223598 106.179977
[null_rope02_connect]
47 328.732849 0.000179 -0.000119 -65.449806 84.841057 108.460571 328.732849
48 328.732849 0.000179 -0.000119 -60.657963 84.826759 113.804405 328.732849
[Rope2_Seg01]
47 0.000076 0.000111 0.000153 78.777763 82.067337 -166.076645 0.000204
48 0.000076 0.000112 0.000153 74.384140 81.794647 -170.557236 0.000204
[Rope2_Seg02]
47 139.999741 -0.000060 -0.000119 -2.210448 8.405281 5.500812 139.999756
48 139.999741 -0.000060 -0.000119 -2.116553 8.640611 5.347696 139.999756
[Rope2_Seg03]
47 140.000107 0.000030 0.000000 -4.628816 11.196646 9.322356 140.000107
48 140.000107 0.000030 0.000000 -4.624478 11.758142 9.179842 140.000107
[Rope2_Seg04]
47 139.999802 0.000000 -0.000060 -6.575515 11.237597 10.046689 139.999802
48 139.999802 0.000000 -0.000060 -6.752035 11.787192 9.877580 139.999802
[Rope2_Seg05]
47 139.999985 -0.000060 0.000119 2.069566 3.088643 -5.040958 139.999985
48 139.999985 -0.000060 0.000119 2.088169 2.773433 -4.832897 139.999985
[Rope2_Seg06]
47 139.999893 -0.000030 -0.000119 1.205047 1.794360 -2.669028 139.999893
48 139.999893 -0.000030 -0.000119 1.046782 1.692196 -2.373855 139.999893
[Rope2_Seg07]
47 139.999893 0.000060 -0.000060 0.255325 1.436755 -1.071758 139.999893
48 139.999893 0.000060 -0.000060 0.178163 1.388007 -0.945838 139.999893
[Rope2_Seg09]
47 121.338966 0.000089 -0.000060 33.793236 -1.359788 -0.847141 121.338966
48 121.338966 0.000089 -0.000060 33.793236 -1.359788 -0.847141 121.338966
[R_mid_hand01]
47 104.680779 11.144459 -10.335981 -41.523792 25.424656 28.595957 105.778534
48 104.680779 11.144459 -10.335981 -41.523792 25.424656 28.595957 105.778534
[R_mid_hand02]
47 104.070427 2.443552 8.231699 72.847389 -32.746803 10.013901 104.424065
48 104.070427 2.443552 8.231699 72.847389 -32.746803 10.013901 104.424065
[R_mid_hand03]
47 106.028137 -11.221827 -5.996406 -167.901306 10.259192 -37.009720 106.788818
48 106.028137 -11.221827 -5.996406 -167.901306 10.259192 -37.009720 106.788818
[spine02]
47 129.756927 0.001550 0.000119 -0.245322 -4.052060 -4.355547 129.756927
48 129.756927 0.001550 0.000119 -0.245322 -4.052060 -4.355547 129.756927
[spine03]
47 78.613846 0.087372 -4.898873 0.207412 -2.089717 -0.432471 78.766380
48 78.613846 0.087372 -4.898873 0.207411 -2.089716 -0.432471 78.766380
[pelvis]
47 169.435242 0.051022 0.000000 -0.010007 -0.191417 -1.897554 169.435257
48 169.435242 0.051022 0.000000 -0.010007 -0.191417 -1.897554 169.435257
[null_rope03_connect]
47 -1.257226 -2.466202 137.391083 138.134109 -71.813644 -81.622780 137.418976
48 -1.257226 -2.466202 137.391083 138.109482 -71.877739 -82.185379 137.418976
[null_rope04_connect]
47 -1.259640 -2.480268 -137.844437 138.134109 -71.813644 -81.622780 137.872513
48 -1.259640 -2.480268 -137.844437 138.109482 -71.877739 -82.185379 137.872513
[Rope3_Seg01]
47 0.000000 0.000000 0.000000 164.007538 72.437950 -131.589401 0.000000
48 0.000000 0.000000 0.000000 162.050110 72.289345 -133.440262 0.000000
[Rope3_Seg02]
47 139.999924 -0.000119 0.000060 5.907875 9.846580 -3.155411 139.999924
48 139.999924 -0.000119 0.000060 6.161390 10.112754 -3.058043 139.999924
[Rope3_Seg03]
47 139.999924 -0.000119 0.000119 11.063011 16.936501 -6.072591 139.999924
48 139.999924 -0.000119 0.000119 11.577853 17.262173 -5.927678 139.999924
[Rope3_Seg04]
47 139.999924 0.000119 0.000000 13.415687 19.558939 -12.041177 139.999924
48 139.999924 0.000119 0.000000 13.868029 19.488108 -11.925161 139.999924
[Rope3_Seg05]
47 139.999924 -0.000238 0.000060 -10.105861 -20.355997 3.429588 139.999924
48 139.999924 -0.000238 0.000060 -9.665688 -19.728748 2.522504 139.999924
[Rope3_Seg06]
47 139.999893 -0.000119 -0.000060 -4.504273 -17.240406 0.975204 139.999893
48 139.999893 -0.000119 -0.000060 -4.370456 -16.890104 0.445732 139.999893
[Rope3_Seg07]
47 139.999771 0.000060 -0.000119 -0.587340 -8.161190 -0.987776 139.999771
48 139.999771 0.000060 -0.000119 -0.557942 -8.083175 -1.272827 139.999771
[Rope3_Seg08]
47 139.999985 -0.000060 0.000000 0.178960 -4.558598 -0.599416 139.999985
48 139.999985 -0.000060 0.000000 0.193295 -4.493951 -0.763202 139.999985
[Rope3_Seg09]
47 90.185997 -0.000179 -0.000060 89.793228 -1.359877 -0.847183 90.185997
48 90.185997 -0.000179 -0.000060 89.793228 -1.359877 -0.847183 90.185997
[R_rear_hand01]
47 103.366196 -6.073594 -10.757982 -161.551193 16.666374 -30.088671 104.101845
48 103.366196 -6.073594 -10.757982 -161.551193 16.666374 -30.088671 104.101845
[R_rear_hand02]
47 100.509819 12.039542 -7.992327 -34.280552 19.289745 28.875523 101.543350
48 100.509819 12.039542 -7.992327 -34.280552 19.289745 28.875523 101.543350
[R_rear_hand03]
47 101.539970 5.215704 5.435467 83.366440 -30.933914 7.284830 101.819031
48 101.539970 5.215704 5.435467 83.366440 -30.933914 7.284830 101.819031
[Rope4_Seg01]
47 0.000010 0.000038 -0.000114 13.940906 59.399193 -149.441422 0.000121
48 0.000010 0.000038 -0.000114 12.027724 59.327869 -151.549622 0.000121
[Rope4_Seg02]
47 139.999985 0.000060 0.000119 0.672132 0.921688 8.427787 139.999985
48 139.999985 0.000060 0.000119 0.793113 0.486206 8.812362 139.999985
[Rope4_Seg03]
47 139.999924 0.000000 -0.000238 -0.039080 0.423370 11.808051 139.999924
48 139.999924 0.000000 -0.000238 0.100009 -0.148447 12.360035 139.999924
[Rope4_Seg04]
47 139.999985 0.000000 0.000119 -0.699854 1.364479 9.416422 139.999985
48 139.999985 0.000000 0.000119 -0.659088 0.825611 10.268446 139.999985
[Rope4_Seg05]
47 139.999802 -0.000060 -0.000119 1.162300 4.928673 -6.084934 139.999802
48 139.999802 -0.000060 -0.000119 1.031689 5.340555 -6.296025 139.999802
[Rope4_Seg06]
47 139.999924 0.000000 0.000060 0.913028 3.077777 -3.477271 139.999924
48 139.999924 0.000000 0.000060 0.914316 3.442916 -3.895448 139.999924
[Rope4_Seg07]
47 139.999802 0.000000 0.000000 0.670740 2.085067 -1.836233 139.999802
48 139.999802 0.000000 0.000000 0.672207 2.293967 -2.009869 139.999802
[Rope4_Seg08]
47 139.999924 0.000000 0.000119 -1.117236 1.178383 -1.063383 139.999924
48 139.999924 0.000000 0.000119 -1.102711 1.320776 -1.188278 139.999924
[Rope4_Seg09]
47 90.185791 0.000060 0.000060 -135.617828 2.228885 0.850567 90.185791
48 90.185791 0.000060 0.000060 -135.617828 2.228885 0.850567 90.185791
[L_rear_hand01]
47 101.696655 -8.392275 -7.654577 -34.454281 -18.946800 151.655121 102.329041
48 101.696655 -8.392275 -7.654577 -34.454281 -18.946800 151.655121 102.329041
[L_rear_hand02]
47 102.726799 -1.568258 5.773216 83.407906 30.330435 172.796509 102.900848
48 102.726799 -1.568258 5.773216 83.407906 30.330435 172.796509 102.900848
[L_rear_hand03]
47 104.552910 9.721220 -10.420293 -161.379868 -16.473232 -150.512238 105.519653
48 104.552910 9.721220 -10.420293 -161.379868 -16.473232 -150.512238 105.519653
